<?xml version="1.0" encoding="UTF-8"?> <svg xmlns="http://www.w3.org/2000/svg" xmlns:xlink="http://www.w3.org/1999/xlink" id="Layer_1" data-name="Layer 1" width="155.59" height="110.4" viewBox="0 0 155.59 110.4"><defs><radialGradient id="radial-gradient" cx="94.36" cy="67.7" r="0" gradientUnits="userSpaceOnUse"><stop offset="0" stop-color="#f4db6c"></stop><stop offset="0.1" stop-color="#f1d564"></stop><stop offset="0.25" stop-color="#e9c44d"></stop><stop offset="0.43" stop-color="#dda929"></stop><stop offset="0.61" stop-color="#cf8a00"></stop></radialGradient><radialGradient id="radial-gradient-2" cx="84.79" cy="54.27" r="91.2" xlink:href="#radial-gradient"></radialGradient></defs><title>podmax-logo</title><polygon points="94.36 67.7 94.36 67.7 94.36 67.7 94.36 67.7" style="fill:url(#radial-gradient)"></polygon><path d="M154.88,90.27c-7.75-5-13.74-12-18.29-20.25a78.11,78.11,0,0,1-6-13.14,108.76,108.76,0,0,1-3.15-10.5c1.25-3,2.65-6.46,4.23-10.53,3.29-8.14,8.22-20.78,9.1-23.77.7-2.36-.39.3-1.48,2.94s-2.22,5.27-1.5,2.94c-3.37,9-6.86,18-10.79,26.6-.33-1.42-.57-2.6-.72-3.43l-.11-.5c-.57-3-1.25-6.65-1.75-9.29-.26-1.16-.54-2.37-.81-3.57,0,.56,0,1.09-.05,1.56-.14-1.23-.25-2.47-.38-2.93-.44-2.62-.53-1.11-.75-.06-.07.75-.38-.23-.4.94-.07-.83-.11-1.25-.18-2.08-.14-.09.31,2.55,0,2,0-.8-.19-1.69-.25-2.52-.17.3.19,2.89,0,2.78-.09-.45,0-2.37-.21-2.51a7.58,7.58,0,0,0,0,1.23c-.3-2.56-.58-4-.65-1.6-.06-.83,0-2-.11-2.88h0c0,.46,0,1.2,0,1.6l-.07-1.49-.08.27c0,.38,0,.75,0,1.13l0-1a8.45,8.45,0,0,0-.15.86,26.5,26.5,0,0,0-.12,3,123.64,123.64,0,0,0,2,15.22c.08,0,.11-.29.23.12.33,1.29.32,2.39.67,3.67l.15.07c.19,1,.38,2.08.58,3.16.15.56.32,1.12.48,1.67a82.89,82.89,0,0,1-6.1,10.63,26.25,26.25,0,0,1-2.13,2.67,12.08,12.08,0,0,1-1,1l-.47.36-.19.12s0,0,0,0a6.81,6.81,0,0,1-.61-1.05,29,29,0,0,1-1.9-6.56c-.46-2.42-.79-5-1-7.5s-.44-5.13-.62-7.77l-.14-2c0-.36-.06-.72-.12-1.18l-.06-.42-.06-.3a4.45,4.45,0,0,0-.15-.57l-.08-.22a5.91,5.91,0,0,0-.26-.54,3.65,3.65,0,0,0-.47-.69,4.48,4.48,0,0,0-3.27-1.52,4.26,4.26,0,0,0-2.82,1.11c-.91,1-.48.57-.74.89-.1.17-.19.33-.27.5a1.77,1.77,0,0,0-.12.28l-.12.34-.05.21-.08.3c-.13.62-.16.95-.21,1.26l-.15,1-.3,1.93c-.83,5.14-1.77,10.26-3,15.22-.63,2.47-1.3,4.92-2.13,7.22l-.65,1.68-.61,1.38c-.06.13,0,.07,0,.1s0,0,0,0v0h0l0-.07-.09-.33-.36-1.36c-.94-3.68-1.68-7.57-2.41-11.48S90,46.55,89.28,42.58l-.6-3-.54-2.5c-.21-1-.44-1.93-.67-2.88a44.11,44.11,0,0,0-1.64-5.25c-.16-.38-.31-.77-.48-1.09a7.64,7.64,0,0,0-.5-1,10.89,10.89,0,0,0-1-1.48A4.69,4.69,0,0,0,82,24.19a4.31,4.31,0,0,0-1-.25l-.29,0h-.39a3.68,3.68,0,0,0-.57.07,4.44,4.44,0,0,0-1.72.75,5.86,5.86,0,0,0-1.76,2,22.22,22.22,0,0,0-1.55,3.92c-.47,1.5-.91,3.09-1.33,4.69l-1.05,4.15L71.75,42l-3,13.77c-.7,3.12-1.49,6.61-2.39,10.39-.46,1.88-.94,3.84-1.47,5.85l-.21.83a2.44,2.44,0,0,1-.11.32c0,.09-.08.26-.2.26a1.32,1.32,0,0,1-.23-.61L64,72.47,64,72l-.23-1.89c-.29-2.54-.56-5.14-.8-7.78C62,51.73,61.27,40.45,60.55,29c-.18-2.86-.34-5.7-.56-8.63-.11-1.46-.23-2.92-.38-4.38-.07-.74-.15-1.47-.24-2.21l-.07-.55-.11-.78L59,10.77a28.21,28.21,0,0,0-1.87-7.06,8.07,8.07,0,0,0-.7-1.25L56,1.93l-.41-.43A5.17,5.17,0,0,0,53.71.25,4,4,0,0,0,52.37,0a4.19,4.19,0,0,0-1.24.19,5.59,5.59,0,0,0-2,1.11,9,9,0,0,0-1.8,2.14c-.29.43-.55,1-.83,1.47S46,6,45.79,6.58c-.48,1.16-.93,2.37-1.32,3.62l-.31.92-.18.59-.32,1c-.4,1.38-.78,2.75-1.14,4.12-.71,2.72-1.34,5.42-1.94,8.07-1.19,5.32-2.22,10.5-3.15,15.47C35.65,50,34.18,58.79,33,66.47c-.08-3.39-.19-6.62-.34-9.63-.11-2.08-.23-4.17-.38-6.27-.09-1.45-.19-2.9-.28-4.35-.12-1.79-.25-3.53-.39-5.25s-.3-3.38-.48-4.95a12.47,12.47,0,0,0-.86-3.52c-.37-.76-.71-1.34-1-1.87-.16-.25-.31-.48-.47-.7a3.3,3.3,0,0,0-.61-.65,4.81,4.81,0,0,1,.93,1.54c.23.59.46,1.26.7,2l.17.58c.06.2.11.45.16.67.11.41.18,1,.26,1.49.14,1.1.19,2.36.25,3.55a31.69,31.69,0,0,0-.5-4.2,21.42,21.42,0,0,0-.8-2.61,17.35,17.35,0,0,0-.76-1.86,2.75,2.75,0,0,0-.55-.77.45.45,0,0,0-.33-.09.82.82,0,0,0-.23.12,1.66,1.66,0,0,0-.3.29,22,22,0,0,0-1.71,2.62,15.92,15.92,0,0,0-1.58,2.93c-.3.67-.58,1.51-.85,2.29s-.51,1.56-.74,2.28c-.47,1.41-.89,2.61-1.28,3.6s-.74,1.85-1,2.54-.44,1-.6,1.38c-.58,1.3-.61,1.51-.21,1.08A10.68,10.68,0,0,0,20,47.61l.26-.4c.09-.13.22-.36.33-.55.23-.39.46-.82.69-1.26.94-1.74,1.85-3.81,2.57-5.31.5-1.15.68-1.38.76-1.37s0,.36,0,.62c0,.53.13.59,1.16-2.24-.75,2.35-1.34,4.12-2,5.87-.33.87-.68,1.75-1.09,2.68-.21.47-.43,1-.67,1.46-.13.25-.26.52-.39.79l-.49.92c0,.09.12-.08.33-.46s.48-.9.77-1.5c.57-1.2,1.25-2.87,1.83-4.5s1.09-3.19,1.39-4,.38-1,.11.17c-.67,2-1.44,4.32-2.33,6.56-.23.56-.46,1.12-.7,1.66l-.38.82-.19.4-.25.49a29,29,0,0,1-2.27,3.81,18.28,18.28,0,0,0,2.24-3.32c.53-1,.83-1.57,1.19-2.36s.69-1.55,1-2.33c.62-1.56,1.12-3.07,1.47-4.06s.54-1.43.46-1A59.94,59.94,0,0,1,23.62,45c-.26.61-.53,1.21-.8,1.78l-.4.83-.43.85A27.8,27.8,0,0,0,20.77,51a16.82,16.82,0,0,0,1.59-2.68A32.59,32.59,0,0,0,23.84,45c-.26.7-.53,1.37-.8,2s-.49,1.09-1,2.12a32,32,0,0,1-2.88,4.65,17.55,17.55,0,0,1-5.55,5c-.67.36-1.09.57-1.18.64s.17.08.78-.13A11.18,11.18,0,0,0,16,57.85a18.25,18.25,0,0,0,4-3.73,19.44,19.44,0,0,1-3.63,3.63,14.53,14.53,0,0,1-2.52,1.52,13.3,13.3,0,0,1-2.94.95,13.61,13.61,0,0,1-3.11.18,14.59,14.59,0,0,1-2.93-.52A20.8,20.8,0,0,1,0,57.76l0,0a20,20,0,0,0,5.67,2.38,14,14,0,0,0,3.44.32l.78-.06A12.82,12.82,0,0,1,6,60.26a17.71,17.71,0,0,1-5.35-2,16.46,16.46,0,0,0,1.68,1A16.25,16.25,0,0,0,6.56,60.6c.36.06.72.1,1.08.13a15.62,15.62,0,0,1-4.32-.95,14,14,0,0,0,6.84,1.29A13.94,13.94,0,0,0,17,58.35a21.77,21.77,0,0,0,4.5-4.5,33.84,33.84,0,0,0,2.83-4.41l.12-.22,0,0,0,0,.06-.09a.6.6,0,0,0,.09-.15c.2-.38.29-.72.42-1,0,0,0,0,0,0s0,.05,0,.08a1,1,0,0,1,0,.17v1.22l0,.9.19,6.42q.15,6.42.17,12.86c0,8.59-.06,17.18-.11,25.84,0,2.16,0,4.33,0,6.55,0,1.13.05,2.21.16,3.54a12.46,12.46,0,0,0,.19,1.28l.06.25.11.36a4.29,4.29,0,0,0,.21.54l.07.15c0,.07.11.2.17.29a4.67,4.67,0,0,0,.41.58,4.41,4.41,0,0,0,1.32,1,4.24,4.24,0,0,0,1.23.39,4.29,4.29,0,0,0,1.39,0,4.35,4.35,0,0,0,1.72-.75,4.84,4.84,0,0,0,.62-.55l.24-.29.11-.15.2-.3c.07-.12.09-.17.13-.23l.09-.17c.07-.14.1-.22.13-.29l.1-.24.13-.36c.07-.22.12-.4.17-.58.1-.34.18-.66.25-1,.53-2.35.86-4.45,1.22-6.62l1-6.43c-.15-.09-.58,1.71-.24-1.14,1.13-9,2.66-15.94,3.9-24.82l-.15-.68c1.18-6.83,2.51-13.91,4-21.12,1.2-6.66,2.48-13.28,3.94-19.79.74-3.25,1.52-6.49,2.42-9.62l.34-1.17.16-.54v0l0-.15a1.82,1.82,0,0,1,.12-.35.78.78,0,0,1,0-.54.15.15,0,0,1,.24,0,.74.74,0,0,1,.14.25,4.28,4.28,0,0,1,.13.66c0,.36.08.74.13,1.12.1.9.19,1.83.28,2.78.17,1.89.31,3.84.43,5.82l.26,3.53a3.59,3.59,0,0,0,.29,1.28c.2,3.63.37,6.87.54,9.86.69,9,1.4,18.1,2.38,27.26.25,2.3.51,4.59.82,6.9l.28,2.06c.13,1,.28,2,.43,2.93A52.17,52.17,0,0,0,59,82.28,11.36,11.36,0,0,0,60.66,86a7,7,0,0,0,1,1.09,3,3,0,0,0,1.26.74,2.28,2.28,0,0,0,.49.08.82.82,0,0,0,.49,0,3.82,3.82,0,0,0,.73-.3,5.42,5.42,0,0,0,1.15-.85,10.37,10.37,0,0,0,2.15-3.07,38,38,0,0,0,1.85-5c.28-.91.54-1.84.8-2.77l.64-2.42c.58-2.3,1.12-4.61,1.65-6.93,1.06-4.64,2.06-9.31,3.07-14q.75-3.52,1.53-7.06.67-3,1.36-6.07c.26-1.17.54-2.39.93-3.66.1-.31.21-.63.34-.94a2.46,2.46,0,0,1,.25-.45.33.33,0,0,1,.19-.14c.09,0,.14.06.19.11a5.69,5.69,0,0,1,.85,1.62c.27.72.52,1.56.76,2.47s.41,1.56.86,3.7c1,4.45,1.9,9,2.83,13.43s1.86,8.92,3.11,13.27c.1.35.27.92.43,1.42s.35,1,.54,1.52a11.7,11.7,0,0,0,1.44,2.72,4.71,4.71,0,0,0,1,1,1.92,1.92,0,0,0,1.4.46,2.91,2.91,0,0,0,1.32-.61,8.24,8.24,0,0,0,1.15-1,18.32,18.32,0,0,0,2.79-4.24,42.16,42.16,0,0,0,1.66-4c.72-2,1.32-4,1.85-6a12.14,12.14,0,0,0,1.47.12c0-.08,0-.16,0-.2s.36.19.56.11V60l.48.17c.3,0,.6-.08.9-.15,0-.05,0-.09,0-.11a1.4,1.4,0,0,1,.47,0l.08,0a.2.2,0,0,0,0-.1,1.61,1.61,0,0,1,.22,0A15.19,15.19,0,0,0,109,58.7a33.16,33.16,0,0,0,1.44,5.16,11.74,11.74,0,0,0,1.54,2.9,3,3,0,0,0,2.16,1.32,2.9,2.9,0,0,0,1.18-.18,4.89,4.89,0,0,0,1-.53,10.82,10.82,0,0,0,1.72-1.48A9.38,9.38,0,0,0,119.54,64c.28-1,1.23-2.82,3.2-7,.66-1.4,1.43-3.07,2.31-5.07.22.7.43,1.4.66,2.1,0-.06.07-.1.15.09.29.78.58,1.9,1,3l.2.49a.29.29,0,0,0,.16.15l.46,1.39a88.38,88.38,0,0,0,3.81,8.09c.69,1.36,1.49,2.67,2.27,4,.41.67.84,1.33,1.26,2l.65,1,.69,1L137.56,77c.43.52.85,1,1.25,1.56l.91,1.24,1,1.29,1,1.29,1,1.14c.08-.26.91.44,1.72,1s1.6,1.1,1.44.61a11.9,11.9,0,0,0,2.41,2.09c.48-.12,1.44.22,4.16,1.91,1.05.67,2.61,1.81,3,2C156.11,91.37,154.23,90,154.88,90.27ZM7.82,60.74c.29,0,.58,0,.87,0C8.4,60.76,8.11,60.76,7.82,60.74Zm1.23,0,.8-.06C9.58,60.73,9.32,60.75,9.05,60.76Zm1.15-.09a11.39,11.39,0,0,0,1.14-.21A11.39,11.39,0,0,1,10.2,60.67Zm.58-.36c.47-.09.91-.2,1.29-.31A11,11,0,0,1,10.78,60.31Zm-.68.1c.21,0,.42,0,.61-.09C10.51,60.36,10.31,60.38,10.1,60.41Zm96.28-4.17a11.41,11.41,0,0,1-2.18.11h-.56c1-4,1.71-8,2.33-11.68.13,1,.25,2,.39,3a80.17,80.17,0,0,0,1.48,8.2A9.11,9.11,0,0,1,106.38,56.24Z" style="fill:url(#radial-gradient-2)"></path><path d="M69.39,20.19V10h4.36a3,3,0,0,1,1.35.3,3.46,3.46,0,0,1,1.05.79,4,4,0,0,1,.69,1.11,3.31,3.31,0,0,1,.26,1.26,3.52,3.52,0,0,1-.24,1.29,3.47,3.47,0,0,1-.67,1.11,3,3,0,0,1-1,.78,3.1,3.1,0,0,1-1.34.29H71.75v3.3Zm2.36-5.36h1.93a.91.91,0,0,0,.72-.36,1.6,1.6,0,0,0,.3-1.05,1.89,1.89,0,0,0-.09-.62,1.19,1.19,0,0,0-.25-.43,1.1,1.1,0,0,0-.36-.26,1.19,1.19,0,0,0-.41-.08H71.75Z" style="fill:#fff"></path><path d="M89.19,20.28a4.73,4.73,0,0,1-2.08-.45,5.25,5.25,0,0,1-1.6-1.17,5.5,5.5,0,0,1-1-1.67,5.34,5.34,0,0,1-.37-1.93,5.25,5.25,0,0,1,.38-2,5.22,5.22,0,0,1,2.69-2.78,4.83,4.83,0,0,1,2-.43,4.69,4.69,0,0,1,2.07.45,5,5,0,0,1,1.6,1.18,5.36,5.36,0,0,1,1.39,3.57,5,5,0,0,1-.39,2,5.27,5.27,0,0,1-1.05,1.65,5.21,5.21,0,0,1-1.62,1.14A4.79,4.79,0,0,1,89.19,20.28Zm-2.67-5.19a4.11,4.11,0,0,0,.17,1.15,3.38,3.38,0,0,0,.51,1,2.49,2.49,0,0,0,.85.69,2.38,2.38,0,0,0,1.15.26,2.45,2.45,0,0,0,1.18-.27,2.53,2.53,0,0,0,.84-.71,3.21,3.21,0,0,0,.49-1,4,4,0,0,0,.17-1.13,4.05,4.05,0,0,0-.17-1.15,3.18,3.18,0,0,0-.52-1,2.62,2.62,0,0,0-.84-.67A2.52,2.52,0,0,0,89.2,12a2.41,2.41,0,0,0-1.17.26,2.6,2.6,0,0,0-.84.7,2.89,2.89,0,0,0-.5,1A3.6,3.6,0,0,0,86.52,15.09Z" style="fill:#fff"></path><path d="M102,20.19V10h3.82a5.59,5.59,0,0,1,2.21.4,4.61,4.61,0,0,1,1.6,1.1,4.56,4.56,0,0,1,1,1.62,6.24,6.24,0,0,1,0,4.09,4.42,4.42,0,0,1-2.65,2.65,5.63,5.63,0,0,1-2.09.37Zm6.51-5.13a4,4,0,0,0-.18-1.23,2.8,2.8,0,0,0-.53-1,2.2,2.2,0,0,0-.85-.62,2.88,2.88,0,0,0-1.13-.22h-1.46v6.09h1.46a2.66,2.66,0,0,0,1.15-.24,2.22,2.22,0,0,0,.84-.64,2.78,2.78,0,0,0,.52-1A4,4,0,0,0,108.51,15.06Z" style="fill:#fff"></path></svg> 